<svg width="28" height="24" viewBox="0 0 28 24" fill="none" xmlns="http://www.w3.org/2000/svg">
<path d="M25.0014 0.00223555C24.6525 0.0182966 24.3239 0.118678 24.0317 0.231105H24.0277C23.7315 0.347548 22.3236 0.933777 20.1853 1.82115C18.0471 2.71254 15.2718 3.86894 12.5168 5.0173C7.015 7.31002 1.60649 9.5666 1.60649 9.5666L1.67141 9.54251C1.67141 9.54251 1.29813 9.66297 0.90862 9.92797C0.709808 10.0565 0.490708 10.2331 0.300011 10.5102C0.109313 10.7872 -0.0448683 11.2129 0.0119358 11.6505C0.105256 12.3933 0.592144 12.839 0.941079 13.084C1.29407 13.3329 1.63084 13.4494 1.63084 13.4494H1.63895L6.7107 15.1398C6.93791 15.8625 8.25657 20.1508 8.57304 21.1386C8.75968 21.7288 8.94226 22.0982 9.16948 22.3793C9.27903 22.5239 9.40887 22.6443 9.56305 22.7407C9.62391 22.7768 9.68883 22.8049 9.75374 22.829C9.77403 22.8411 9.79432 22.8451 9.81866 22.8491L9.76592 22.8371C9.78215 22.8411 9.79432 22.8531 9.80649 22.8571C9.84706 22.8692 9.87547 22.8732 9.92821 22.8812C10.7316 23.1221 11.3767 22.6283 11.3767 22.6283L11.4132 22.6002L14.4076 19.9019L19.4266 23.7124L19.5402 23.7606C20.587 24.2143 21.646 23.9613 22.2059 23.5156C22.7699 23.0659 22.989 22.4917 22.989 22.4917L23.0255 22.3994L26.9044 2.73663C27.0139 2.25078 27.0423 1.79706 26.9206 1.35538C26.7989 0.913701 26.4864 0.500129 26.1091 0.279289C25.7277 0.0544338 25.3504 -0.0138255 25.0014 0.00223555ZM24.8959 2.11025C24.8919 2.17449 24.9041 2.16646 24.8757 2.29094V2.30298L21.0333 21.761C21.0171 21.7891 20.9887 21.8493 20.9116 21.9095C20.8304 21.9738 20.7655 22.0139 20.4288 21.8814L14.2899 17.2237L10.5815 20.5684L11.3605 15.6457C11.3605 15.6457 20.9765 6.77599 21.3904 6.39454C21.8042 6.01309 21.6663 5.93278 21.6663 5.93278C21.6947 5.46701 21.0414 5.79627 21.0414 5.79627L8.39452 13.5497L8.39046 13.5297L2.32871 11.51V11.506C2.32465 11.506 2.31654 11.502 2.31248 11.502C2.31654 11.502 2.34494 11.4899 2.34494 11.4899L2.3774 11.4739L2.40986 11.4618C2.40986 11.4618 7.82242 9.20523 13.3243 6.91251C16.0792 5.76414 18.8545 4.60775 20.9887 3.71636C23.1229 2.82898 24.7012 2.17851 24.7905 2.14237C24.8757 2.11025 24.8351 2.11025 24.8959 2.11025Z" fill="black"/>
</svg>
