<svg width="24" height="24" viewBox="0 0 24 24" fill="none" xmlns="http://www.w3.org/2000/svg">
<path fill-rule="evenodd" clip-rule="evenodd" d="M2.79072 12C2.79072 6.63493 7.03881 2.28571 12.2791 2.28571C17.5193 2.28571 21.7674 6.63493 21.7674 12C21.7674 17.365 17.5193 21.7142 12.2791 21.7142C10.4124 21.7142 8.67491 21.1636 7.20891 20.2126C6.93608 20.0357 6.60176 19.9884 6.29229 20.0829L3.07835 21.065L4.28844 18.166C4.43147 17.8234 4.40237 17.4309 4.21046 17.1144C3.31055 15.6297 2.79072 13.8787 2.79072 12ZM12.2791 0C5.8058 0 0.558164 5.37257 0.558164 12C0.558164 14.1007 1.08632 16.078 2.01449 17.7973L0.0898286 22.408C-0.0803169 22.8156 -0.00489887 23.2872 0.283336 23.6179C0.57157 23.9487 1.02064 24.079 1.43553 23.9522L6.45813 22.4177C8.1739 23.4245 10.1623 23.9999 12.2791 23.9999C18.7524 23.9999 24 18.6274 24 12C24 5.37257 18.7524 0 12.2791 0ZM14.8381 14.4941L13.3711 15.5521C12.6841 15.1514 11.9244 14.5921 11.1625 13.812C10.3703 13.001 9.78309 12.1637 9.35009 11.3957L10.2824 10.5856C10.6825 10.2379 10.792 9.65178 10.5455 9.17744L9.35759 6.89173C9.19763 6.58395 8.9092 6.36776 8.57431 6.3046C8.2394 6.24146 7.89467 6.33827 7.63811 6.56752L7.28591 6.88221C6.43896 7.639 5.93805 8.88261 6.3532 10.1418C6.78361 11.4472 7.70214 13.5017 9.58384 15.4282C11.6083 17.5009 13.6647 18.3171 14.8673 18.6341C15.8362 18.8894 16.7531 18.5472 17.3992 18.0082L18.0595 17.4573C18.3419 17.2218 18.4943 16.8598 18.4677 16.4879C18.441 16.1159 18.2388 15.7805 17.9258 15.5896L16.0523 14.4467C15.6739 14.216 15.1984 14.2345 14.8381 14.4941Z" fill="black"/>
</svg>
